HIERARCHY
ROOT Hips
{
	OFFSET	0.00	0.00	0.00
	CHANNELS 6 Xposition Yposition Zposition Zrotation Xrotation Yrotation
	JOINT LeftUpLeg
	{
		OFFSET	 0.126116	-0.065224	 0.014019
		CHANNELS 3 Zrotation Xrotation Yrotation
		JOINT LeftLeg
		{
			OFFSET	 0.000000	 0.569914	 0.000000
			CHANNELS 3 Zrotation Xrotation Yrotation
			JOINT LeftFoot
			{
				OFFSET	 0.000000	 0.544423	 0.000000
				CHANNELS 3 Zrotation Xrotation Yrotation
				JOINT LeftToeBase
				{
					OFFSET	 0.000000	 0.207117	 0.000000
					CHANNELS 3 Zrotation Xrotation Yrotation
					End Site
					{
						OFFSET	 0.000000	 0.207117	 0.000000
					}
				}
			}
		}
	}
	JOINT RightUpLeg
	{
		OFFSET	-0.124023	-0.065224	 0.008373
		CHANNELS 3 Zrotation Xrotation Yrotation
		JOINT RightLeg
		{
			OFFSET	 0.000000	 0.570047	 0.000000
			CHANNELS 3 Zrotation Xrotation Yrotation
			JOINT RightFoot
			{
				OFFSET	 0.000000	 0.544354	 0.000000
				CHANNELS 3 Zrotation Xrotation Yrotation
				JOINT RightToeBase
				{
					OFFSET	 0.000000	 0.207540	 0.000000
					CHANNELS 3 Zrotation Xrotation Yrotation
					End Site
					{
						OFFSET	 0.000000	 0.207540	 0.000000
					}
				}
			}
		}
	}
	JOINT Spine
	{
		OFFSET	 0.000184	 0.117403	 0.007763
		CHANNELS 3 Zrotation Xrotation Yrotation
		JOINT Spine1
		{
			OFFSET	 0.000000	 0.137269	 0.000000
			CHANNELS 3 Zrotation Xrotation Yrotation
			JOINT Spine2
			{
				OFFSET	 0.000000	 0.156879	 0.000000
				CHANNELS 3 Zrotation Xrotation Yrotation
				JOINT LeftShoulder
				{
					OFFSET	 0.080501	 0.160143	 0.002496
					CHANNELS 3 Zrotation Xrotation Yrotation
					JOINT LeftArm
					{
						OFFSET	 0.000000	 0.164363	 0.000000
						CHANNELS 3 Zrotation Xrotation Yrotation
						JOINT LeftForeArm
						{
							OFFSET	 0.000000	 0.364576	 0.000000
							CHANNELS 3 Zrotation Xrotation Yrotation
							JOINT LeftHand
							{
								OFFSET	 0.000000	 0.360812	 0.000000
								CHANNELS 3 Zrotation Xrotation Yrotation
								JOINT LeftHandIndex1
								{
									OFFSET	 0.000000	 0.086006	 0.000000
									CHANNELS 3 Zrotation Xrotation Yrotation
									JOINT LeftHandIndex2
									{
										OFFSET	 0.000000	 0.047237	 0.000000
										CHANNELS 3 Zrotation Xrotation Yrotation
										JOINT LeftHandIndex3
										{
											OFFSET	-0.004284	 0.038165	 0.000551
											CHANNELS 3 Zrotation Xrotation Yrotation
											End Site
											{
												OFFSET	-0.004284	 0.038165	 0.000551
											}
										}
									}
								}
							}
						}
					}
				}
				JOINT Neck
				{
					OFFSET	 0.000000	 0.176489	 0.000000
					CHANNELS 3 Zrotation Xrotation Yrotation
					JOINT Head
					{
						OFFSET	 0.000000	 0.077941	 0.001747
						CHANNELS 3 Zrotation Xrotation Yrotation
						End Site
						{
							OFFSET	 0.000000	 0.077941	 0.001747
						}
					}
				}
				JOINT RightShoulder
				{
					OFFSET	-0.080363	 0.159706	-0.000306
					CHANNELS 3 Zrotation Xrotation Yrotation
					JOINT RightArm
					{
						OFFSET	 0.000000	 0.164196	 0.000000
						CHANNELS 3 Zrotation Xrotation Yrotation
						JOINT RightForeArm
						{
							OFFSET	 0.000000	 0.365611	 0.000000
							CHANNELS 3 Zrotation Xrotation Yrotation
							JOINT RightHand
							{
								OFFSET	 0.000000	 0.360648	 0.000000
								CHANNELS 3 Zrotation Xrotation Yrotation
								JOINT RightHandIndex1
								{
									OFFSET	 0.000000	 0.069977	 0.000000
									CHANNELS 3 Zrotation Xrotation Yrotation
									JOINT RightHandIndex2
									{
										OFFSET	 0.000000	 0.052305	 0.000000
										CHANNELS 3 Zrotation Xrotation Yrotation
										JOINT RightHandIndex3
										{
											OFFSET	 0.009002	 0.042196	 0.000782
											CHANNELS 3 Zrotation Xrotation Yrotation
											End Site
											{
												OFFSET	 0.009002	 0.042196	 0.000782
											}
										}
									}
								}
							}
						}
					}
				}
			}
		}
	}
}
MOTION
Frames:    12
Frame Time: 0.03333334
-0.008395	 1.233970	 0.010882	 2.613707	 0.406850	 172.081100	-170.728300	 18.358590	-2.408888	 9.128449	-30.875430	 4.558555	-20.726340	 73.397280	 11.973470	 1.161913	 26.687720	-2.659613	-173.590800	 10.935870	-5.916962	-2.619001	-31.110540	 7.712708	 7.121289	 79.829820	-6.767942	-1.288885	 28.371060	 2.710472	 2.146128	 6.143603	-3.450717	 4.082190	 5.040267	-1.837237	-2.471515	-4.377549	 8.078436	-113.148000	 6.490566	 92.940010	 14.151860	 49.817810	 9.367968	 18.484030	-0.939922	 0.069132	 6.325485	-9.068193	-5.100684	 0.598011	 8.538023	-0.355555	-5.949154	 13.603510	 1.520732	 4.987829	-3.472528	-0.333737	 3.184484	-6.826669	 0.878762	-1.264056	-5.610633	 5.433263	 123.427400	 10.378740	-96.380130	-9.047814	 46.578500	-1.041003	-5.102324	-0.200547	 0.049668	-8.562558	-9.294102	-40.501750	-2.321062	 4.886930	 0.895728	 12.538350	 22.902520	-5.160414	-8.500687	 13.105000	-0.525675
-0.008442	 1.235273	 0.010872	 2.586621	 0.360575	 171.862300	-170.684800	 18.341700	-2.668009	 9.155387	-30.864800	 4.521774	-20.769530	 73.133740	 12.023450	 1.161716	 26.685060	-2.659536	-173.577900	 11.066870	-6.056743	-2.626210	-31.208130	 7.617669	 6.520701	 79.615910	-6.124258	-1.288697	 28.368590	 2.710393	 2.205695	 6.098882	-3.472648	 3.995054	 5.108001	-1.800780	-2.409267	-4.531570	 8.112709	-113.062600	 6.502569	 92.949000	 13.192570	 49.851950	 10.210210	 19.638580	-0.996362	 0.088621	 5.893078	-9.505984	-5.015560	 0.664359	 8.332158	-0.355067	-5.948311	 13.649760	 1.525692	 4.991176	-3.399022	-0.331964	 3.182059	-6.828473	 0.892727	-1.265383	-5.667202	 5.537373	 123.370100	 10.388070	-96.374120	-8.983160	 46.619790	-1.018172	-5.112605	-0.200967	 0.049543	-9.070364	-9.564259	-40.354770	-2.345053	 4.962071	 0.894781	 12.552780	 23.100750	-5.208333	-8.502105	 13.267250	-0.535918
-0.008498	 1.236538	 0.010901	 2.554241	 0.303890	 171.597400	-170.629600	 18.321650	-2.930785	 9.153169	-30.858700	 4.410855	-20.872790	 72.866080	 12.136600	 1.161480	 26.681860	-2.659441	-173.560500	 11.224910	-6.225848	-2.634568	-31.322110	 7.503063	 5.855995	 79.408480	-5.408332	-1.288471	 28.365610	 2.710297	 2.277372	 6.051434	-3.503242	 3.904737	 5.171737	-1.762598	-2.342408	-4.689902	 8.152178	-112.959400	 6.517093	 92.959820	 12.305210	 49.910770	 11.023040	 20.695030	-1.047615	 0.107449	 5.520891	-10.032660	-4.921523	 0.744467	 8.083465	-0.354156	-5.947297	 13.705620	 1.531682	 4.995214	-3.310243	-0.329829	 3.179131	-6.830654	 0.909592	-1.267089	-5.731723	 5.662560	 123.300900	 10.399330	-96.366890	-8.926910	 46.663150	-0.974899	-5.121971	-0.201325	 0.049576	-9.653643	-9.889625	-40.188260	-2.374029	 5.052823	 0.893679	 12.570470	 23.340180	-5.266388	-8.503780	 13.463230	-0.548295
-0.008563	 1.237792	 0.010972	 2.516442	 0.236306	 171.282400	-170.561600	 18.297610	-3.248121	 9.149588	-30.848860	 4.278916	-21.031230	 72.588750	 12.308400	 1.161199	 26.678060	-2.659330	-173.537100	 11.411600	-6.426286	-2.644087	-31.452800	 7.367428	 5.121857	 79.201710	-4.615116	-1.288202	 28.362080	 2.710183	 2.362855	 5.999679	-3.546813	 3.816396	 5.236320	-1.726245	-2.272812	-4.857054	 8.197333	-112.837100	 6.534329	 92.972630	 11.460140	 49.996390	 11.832120	 21.688880	-1.095652	 0.126051	 5.191503	-10.657600	-4.825685	 0.839359	 7.788695	-0.352624	-5.946103	 13.771810	 1.538780	 4.999995	-3.205045	-0.327307	 3.175662	-6.833239	 0.929576	-1.269091	-5.805200	 5.810402	 123.218900	 10.412680	-96.358280	-6.658860	 46.721020	-2.526941	-8.189501	-0.321209	 0.035560	-8.781525	-10.215620	-39.998080	-2.408368	 5.160364	 0.892433	 12.591820	 23.623950	-5.335437	-8.505708	 13.695500	-0.562969
-0.008636	 1.239064	 0.011092	 2.472558	 0.155233	 170.910500	-170.478600	 18.269710	-3.627727	 9.144021	-30.833710	 4.122439	-21.245690	 72.294630	 12.540720	 1.160868	 26.673590	-2.659199	-173.505800	 11.631410	-6.663009	-2.654706	-31.600160	 7.207667	 4.300704	 78.989030	-3.726443	-1.287886	 28.357910	 2.710049	 2.464853	 5.942004	-3.609434	 3.736342	 5.305396	-1.696154	-2.202407	-5.038051	 8.249181	-112.692800	 6.554706	 92.987690	 10.634050	 50.112570	 12.660460	 22.648060	-1.141508	 0.144780	 4.891734	-11.398770	-4.735499	 0.951297	 7.440753	-0.350183	-5.944705	 13.849920	 1.547157	 5.005631	-3.080906	-0.324343	 3.171571	-6.836290	 0.953157	-1.271334	-5.889322	 5.984469	 123.122200	 10.428380	-96.348110	-4.872152	 46.748360	-3.713149	-10.608250	-0.415270	 0.020008	-8.333132	-10.620290	-39.802060	-2.448894	 5.287267	 0.891046	 12.617570	 23.958860	-5.417285	-8.507910	 13.969620	-0.580295
-0.008714	 1.240323	 0.011261	 2.424219	 0.063695	 170.490700	-170.382200	 18.237360	-4.059743	 9.136348	-30.812760	 3.945431	-21.505470	 71.991000	 12.822730	 1.160496	 26.668540	-2.659051	-173.465900	 11.876990	-6.929694	-2.665963	-31.758170	 7.028001	 3.419000	 78.774150	-2.771740	-1.287529	 28.353220	 2.709898	 2.581283	 5.881450	-3.694321	 3.675612	 5.379723	-1.678306	-2.137005	-5.229567	 8.306334	-112.530300	 6.577697	 93.004600	 9.844751	 50.258000	 13.490800	 23.552340	-1.184506	 0.163097	 4.623035	-12.239630	-4.664108	 1.077366	 7.048623	-0.346613	-5.943142	 13.937910	 1.556595	 5.011971	-2.941046	-0.321019	 3.166962	-6.839730	 0.979723	-1.273643	-5.981848	 6.180338	 123.013100	 10.446060	-96.336580	-3.473100	 46.759800	-4.602926	-12.520150	-0.488835	 0.004971	-8.215229	-11.087200	-39.615510	-2.494560	 5.430243	 0.889590	 12.647290	 24.336250	-5.509978	-8.510290	 14.278510	-0.599831
-0.008799	 1.241602	 0.011488	 2.370333	-0.041729	 170.012700	-170.269600	 18.200250	-4.554601	 9.125849	-30.783960	 3.743434	-21.810650	 71.669820	 13.155430	 1.160072	 26.662810	-2.658883	-173.414900	 12.154490	-7.232738	-2.677868	-31.927520	 6.824310	 2.460762	 78.549420	-1.734664	-1.287124	 28.347890	 2.709727	 2.715697	 5.815326	-3.808211	 3.641124	 5.465970	-1.677263	-2.078647	-5.438704	 8.370003	-112.345600	 6.603898	 93.023710	 9.069611	 50.437310	 14.346490	 24.429730	-1.226037	 0.181619	 4.371238	-13.202120	-4.619957	 1.220542	 6.603000	-0.341505	-5.941383	 14.037870	 1.567318	 5.019163	-2.782158	-0.317262	 3.161729	-6.843640	 1.009902	-1.275936	-6.084998	 6.402599	 122.889200	 10.466130	-96.323470	-2.294705	 46.760490	-5.315027	-14.163970	-0.551580	-0.009955	-8.326667	-11.620730	-39.442580	-2.546446	 5.592672	 0.888075	 12.682000	 24.765060	-5.615915	-8.512868	 14.629490	-0.622046
-0.008887	 1.242869	 0.011769	 2.312998	-0.158045	 169.490100	-170.143400	 18.158890	-5.097392	 9.112226	-30.746710	 3.522061	-22.145960	 71.339470	 13.523160	 1.159610	 26.656560	-2.658700	-173.352600	 12.454630	-7.563060	-2.689779	-32.099950	 6.602827	 1.459767	 78.318620	-0.652744	-1.286682	 28.342080	 2.709540	 2.864912	 5.745054	-3.952721	 3.642021	 5.565413	-1.698390	-2.032596	-5.660841	 8.438257	-112.144300	 6.632493	 93.044450	 8.328366	 50.644860	 15.206100	 25.259100	-1.264924	 0.199621	 4.135621	-14.259300	-4.616097	 1.376543	 6.117181	-0.334664	-5.939490	 14.146800	 1.579006	 5.026989	-2.608994	-0.313191	 3.156028	-6.847904	 1.042791	-1.278000	-6.195676	 6.644631	 122.754200	 10.487960	-96.309120	-1.315996	 46.752350	-5.868116	-15.577770	-0.605400	-0.024227	-8.619478	-12.198540	-39.299130	-2.603008	 5.769698	 0.886592	 12.720970	 25.232480	-5.732156	-8.515519	 15.012080	-0.646283
-0.008981	 1.244158	 0.012113	 2.251331	-0.288669	 168.912000	-170.000200	 18.112660	-5.699804	 9.094846	-30.699030	 3.276497	-22.514020	 70.991690	 13.929780	 1.159101	 26.649660	-2.658498	-173.276000	 12.783060	-7.927851	-2.701625	-32.275540	 6.358964	 0.397024	 78.073880	 0.493738	-1.286195	 28.335670	 2.709334	 3.033445	 5.668225	-4.135158	 3.684036	 5.687042	-1.746455	-2.000111	-5.904719	 8.512471	-111.922000	 6.664173	 93.067260	 7.601374	 50.884410	 16.090850	 26.066240	-1.302565	 0.217700	 3.901690	-15.434100	-4.661397	 1.548741	 5.580665	-0.325573	-5.937424	 14.267070	 1.591912	 5.035612	-2.417821	-0.308724	 3.149738	-6.852616	 1.079098	-1.279736	-6.316288	 6.911723	 122.605100	 10.512030	-96.293240	-0.480916	 46.735310	-6.298984	-16.848220	-0.653431	-0.038189	-9.072530	-12.827060	-39.189860	-2.665467	 5.965138	 0.885158	 12.765410	 25.748590	-5.861463	-8.518260	 15.434530	-0.673077
-0.009079	 1.245455	 0.012513	 2.186365	-0.431316	 168.287500	-169.842200	 18.061110	-6.352258	 9.073519	-30.640550	 3.010322	-22.905430	 70.631420	 14.366030	 1.158552	 26.642230	-2.658280	-173.185100	 13.132530	-8.321292	-2.712911	-32.447910	 6.096755	-0.706246	 77.816450	 1.681124	-1.285669	 28.328750	 2.709112	 3.219046	 5.586876	-4.356330	 3.772249	 5.832106	-1.824705	-1.984067	-6.168125	 8.591363	-111.682400	 6.698420	 93.091710	 6.899796	 51.150180	 16.987450	 26.842150	-1.338501	 0.235613	 3.664086	-16.706340	-4.764905	 1.734404	 5.002004	-0.313961	-5.935228	 14.396740	 1.605830	 5.044892	-2.211689	-0.303941	 3.142958	-6.857699	 1.118244	-1.280947	-6.444898	 7.199656	 122.444400	 10.537930	-96.276010	 0.213919	 46.709820	-6.612694	-17.985940	-0.696164	-0.051626	-9.663072	-13.489320	-39.123070	-2.732834	 6.175872	 0.883851	 12.815020	 26.305140	-6.002067	-8.520990	 15.890120	-0.702010
-0.009187	 1.246800	 0.012981	 2.115927	-0.590140	 167.596300	-169.664300	 18.001040	-7.074990	 9.046968	-30.567560	 2.715042	-23.325250	 70.246950	 14.838720	 1.157946	 26.634030	-2.658040	-173.075700	 13.512100	-8.755726	-2.723715	-32.619070	 5.808230	-1.874686	 77.535980	 2.935205	-1.285090	 28.321130	 2.708867	 3.427992	 5.499384	-4.625701	 3.912946	 6.010433	-1.938423	-1.985356	-6.461560	 8.677315	-111.417900	 6.736341	 93.118520	 6.203630	 51.446530	 17.921660	 27.615690	-1.374051	 0.253887	 3.405142	-18.111450	-4.938124	 1.939332	 4.363224	-0.298969	-5.932839	 14.539850	 1.621193	 5.055113	-1.984197	-0.298701	 3.135481	-6.863316	 1.161444	-1.281479	-6.585503	 7.517263	 122.266900	 10.566450	-96.256940	 0.799299	 46.674800	-6.825224	-19.048180	-0.735647	-0.064836	-10.398530	-14.197900	-39.101330	-2.807207	 6.408446	 0.882697	 12.871840	 26.919400	-6.158709	-8.523733	 16.393000	-0.733997
-0.009304	 1.248160	 0.013504	 2.042034	-0.761571	 166.859100	-169.471500	 17.934340	-7.846741	 9.015669	-30.481390	 2.399179	-23.758800	 69.849600	 15.332490	 1.157301	 26.625290	-2.657784	-172.949700	 13.909520	-9.121010	-2.796055	-32.775570	 5.386364	-3.068732	 77.238480	 4.213060	-1.284473	 28.313000	 2.708606	 3.655322	 5.407471	-4.937719	 4.102122	 6.223036	-2.086713	-2.003406	-6.779856	 8.767642	-111.136500	 6.776813	 93.146840	 5.533988	 51.759060	 18.864750	 28.369340	-1.408486	 0.272157	 3.121947	-19.602000	-5.183747	 2.157520	 3.683193	-0.280504	-5.930339	 14.692160	 1.637548	 5.065967	-1.742063	-0.293170	 3.127527	-6.869299	 1.207423	-1.281112	-6.733878	 7.855360	 122.078100	 10.596770	-96.236530	 1.265073	 46.631820	-6.935135	-20.020310	-0.771695	-0.077602	-11.248950	-14.922790	-39.127140	-2.886401	 6.655991	 0.881803	 12.934760	 27.573210	-6.327185	-8.526340	 16.928320	-0.768113
